<?xml version="1.0" encoding="UTF-8" standalone="no"?>
<svg
   width="489.99997"
   height="359.99994"
   viewBox="0 0 129.64583 95.24998"
   version="1.1"
   id="svg1621"
   inkscape:version="1.2.2 (732a01da63, 2022-12-09)"
   sodipodi:docname="container-image-layers.svg"
   xmlns:inkscape="http://www.inkscape.org/namespaces/inkscape"
   xmlns:sodipodi="http://sodipodi.sourceforge.net/DTD/sodipodi-0.dtd"
   xmlns="http://www.w3.org/2000/svg"
   xmlns:svg="http://www.w3.org/2000/svg"
   xmlns:rdf="http://www.w3.org/1999/02/22-rdf-syntax-ns#"
   xmlns:cc="http://creativecommons.org/ns#"
   xmlns:dc="http://purl.org/dc/elements/1.1/">
  <defs
     id="defs1615" />
  <sodipodi:namedview
     id="base"
     pagecolor="#ffffff"
     bordercolor="#666666"
     borderopacity="1.0"
     inkscape:pageopacity="0.0"
     inkscape:pageshadow="2"
     inkscape:zoom="2.3277782"
     inkscape:cx="245.51308"
     inkscape:cy="179.99997"
     inkscape:document-units="mm"
     inkscape:current-layer="layer1"
     inkscape:document-rotation="0"
     showgrid="false"
     inkscape:window-width="1920"
     inkscape:window-height="1009"
     inkscape:window-x="-8"
     inkscape:window-y="-8"
     inkscape:window-maximized="1"
     units="px"
     fit-margin-top="10"
     fit-margin-left="10"
     fit-margin-right="10"
     fit-margin-bottom="10"
     inkscape:showpageshadow="2"
     inkscape:pagecheckerboard="0"
     inkscape:deskcolor="#d1d1d1">
    <inkscape:grid
       type="xygrid"
       id="grid1641"
       originx="-47.625"
       originy="-84.666663" />
  </sodipodi:namedview>
  <metadata
     id="metadata1618">
    <rdf:RDF>
      <cc:Work
         rdf:about="">
        <dc:format>image/svg+xml</dc:format>
        <dc:type
           rdf:resource="http://purl.org/dc/dcmitype/StillImage" />
        <dc:title />
      </cc:Work>
    </rdf:RDF>
  </metadata>
  <g
     inkscape:label="Layer 1"
     inkscape:groupmode="layer"
     id="layer1"
     transform="translate(-47.624999,-84.666667)">
    <rect
       style="fill:#0c322c;stroke:none;stroke-width:0.602351;stroke-linecap:square;stroke-miterlimit:4;stroke-dasharray:none;stroke-opacity:1;paint-order:fill markers stroke;stop-color:#000000"
       id="rect1645"
       width="124.35416"
       height="89.958321"
       x="50.270832"
       y="87.3125" />
    <rect
       style="fill:#30ba78;stroke:none;stroke-width:0.726553;stroke-linecap:square;stroke-miterlimit:4;stroke-dasharray:none;stroke-opacity:1;paint-order:fill markers stroke;stop-color:#000000"
       id="rect1647"
       width="113.77084"
       height="66.145836"
       x="55.562504"
       y="103.1875" />
    <rect
       style="fill:#90ebcd;stroke:none;stroke-width:0.713381;stroke-linecap:square;stroke-miterlimit:4;stroke-dasharray:none;stroke-opacity:1;paint-order:fill markers stroke;stop-color:#000000"
       id="rect1649"
       width="103.18749"
       height="44.979187"
       x="60.854168"
       y="119.0625" />
    <rect
       style="fill:#ffffff;fill-opacity:1;stroke:none;stroke-width:0.661458;stroke-linecap:square;stroke-miterlimit:4;stroke-dasharray:none;stroke-opacity:1;paint-order:fill markers stroke;stop-color:#000000"
       id="rect1666"
       width="79.375"
       height="23.8125"
       x="71.4375"
       y="134.93747" />
    <g
       aria-label="自定义映像 3"
       id="text1670"
       style="font-weight:500;font-size:4.9389px;line-height:1.25;font-family:Poppins;-inkscape-font-specification:'Poppins, Medium';letter-spacing:0px;fill:#ffffff;stroke-width:0.264583">
      <path
         d="m 99.293435,96.791122 v -0.637118 h 2.499085 v 0.637118 z m 2.499085,-1.694043 v 0.632179 h -2.499085 v -0.632179 z m 0,-1.056925 v 0.63218 h -2.499085 v -0.63218 z m -1.2446,-0.439562 c 0.084,-0.1778 0.16298,-0.390173 0.242,-0.597607 l -0.54822,-0.06421 c -0.0346,0.192617 -0.0938,0.44944 -0.16298,0.661812 h -1.244603 v 3.881976 h 0.459318 v -0.266701 h 2.499085 v 0.246945 h 0.48401 v -3.86222 z"
         style="font-family:'Noto Sans CJK SC';-inkscape-font-specification:'Noto Sans CJK SC Medium'"
         id="path494" />
      <path
         d="m 103.8471,93.916682 h 3.20535 v 0.696385 h 0.46919 v -1.131008 h -1.72861 c -0.0593,-0.167923 -0.17286,-0.400051 -0.27658,-0.58279 l -0.45438,0.13335 c 0.0691,0.138289 0.14817,0.306212 0.19756,0.44944 h -1.86197 v 1.131008 h 0.44944 z m 1.84221,2.113849 h 1.41253 v -0.429684 h -1.41253 v -0.716141 h 1.16558 v -0.434623 h -2.7806 v 0.434623 h 1.14089 v 1.881721 c -0.34573,-0.153106 -0.62231,-0.414867 -0.80011,-0.879124 0.0494,-0.192617 0.084,-0.40499 0.1136,-0.622301 l -0.46426,-0.04939 c -0.0988,0.869246 -0.35066,1.560692 -0.889,1.965682 0.10372,0.06914 0.29633,0.227189 0.36548,0.311151 0.30621,-0.266701 0.53834,-0.617363 0.70132,-1.037169 0.44944,0.785285 1.15571,0.948268 2.12867,0.948268 h 1.1804 c 0.0197,-0.138289 0.0938,-0.3556 0.16792,-0.464256 -0.28152,0.0049 -1.10632,0.0049 -1.32363,0.0049 -0.25188,0 -0.48895,-0.0099 -0.70626,-0.04939 z"
         style="font-family:'Noto Sans CJK SC';-inkscape-font-specification:'Noto Sans CJK SC Medium'"
         id="path496" />
      <path
         d="m 110.83071,94.10436 c -0.10866,-0.321028 -0.32597,-0.800102 -0.51859,-1.175458 l -0.39511,0.143228 c 0.1778,0.380295 0.40005,0.884063 0.48895,1.205092 z m 0.96308,-0.795163 c -0.28646,0.928513 -0.71614,1.748371 -1.37795,2.410183 -0.59761,-0.602545 -1.05199,-1.34338 -1.35326,-2.173116 l -0.42969,0.133351 c 0.34079,0.918635 0.80998,1.723676 1.43229,2.370672 -0.52353,0.434623 -1.16065,0.785285 -1.95087,1.03223 0.084,0.103717 0.19262,0.281517 0.24695,0.400051 0.82973,-0.276579 1.49648,-0.651935 2.03482,-1.111253 0.55316,0.484012 1.20509,0.859369 1.97062,1.101375 0.0692,-0.123473 0.21238,-0.321029 0.31609,-0.414868 -0.74083,-0.212372 -1.37795,-0.567973 -1.92123,-1.022352 0.69639,-0.711202 1.16558,-1.585387 1.50637,-2.583045 z"
         style="font-family:'Noto Sans CJK SC';-inkscape-font-specification:'Noto Sans CJK SC Medium'"
         id="path498" />
      <path
         d="m 114.17434,93.694431 v 0.992719 h -0.51365 v -0.992719 z m -0.51365,2.439817 V 95.09214 h 0.51365 v 1.042108 z m 0.92852,0.409929 v -3.259674 h -1.34832 v 3.674541 h 0.4198 v -0.414867 z m 0.83467,-1.229786 v -1.195214 h 0.51859 v 0.730957 c 0,0.158045 -0.005,0.31609 -0.0198,0.464257 z m 1.51131,-1.195214 v 1.195214 h -0.58773 c 0.01,-0.148167 0.0148,-0.311151 0.0148,-0.464257 v -0.730957 z m 0.6865,1.610081 v -0.414867 h -0.26176 v -1.610082 h -0.99766 v -0.730957 h -0.4198 v 0.730957 h -0.92852 v 1.610082 h -0.29139 v 0.414867 h 1.13101 c -0.14817,0.563035 -0.51365,1.051986 -1.3829,1.39277 0.0988,0.07902 0.22719,0.246945 0.28646,0.345723 0.83961,-0.345723 1.24954,-0.824796 1.44216,-1.373014 0.24201,0.632179 0.60748,1.116191 1.1557,1.402647 0.0642,-0.118533 0.19756,-0.286456 0.29634,-0.375356 -0.57292,-0.246945 -0.95815,-0.755652 -1.16558,-1.39277 z"
         style="font-family:'Noto Sans CJK SC';-inkscape-font-specification:'Noto Sans CJK SC Medium'"
         id="path500" />
      <path
         d="m 119.05397,92.963474 c -0.24694,0.72108 -0.66181,1.442159 -1.10631,1.906416 0.079,0.103717 0.21237,0.350662 0.25188,0.464256 0.12842,-0.138289 0.24695,-0.291395 0.36548,-0.454379 v 2.583045 h 0.43463 v -3.294246 c 0.18767,-0.340784 0.3556,-0.706263 0.48401,-1.071741 z m 0.93346,1.358198 h 0.76553 c -0.0198,0.118533 -0.0692,0.261761 -0.16793,0.409928 h -0.5976 z m 1.05198,-0.67663 c -0.0741,0.113595 -0.16792,0.237068 -0.24694,0.330907 h -0.84456 c 0.0988,-0.108656 0.18768,-0.222251 0.27658,-0.330907 z m 0.78035,1.086558 h -0.8001 c 0.0593,-0.148167 0.0938,-0.291395 0.10865,-0.409928 h 0.69145 z m 0.19755,0.508707 c -0.21731,0.162984 -0.56303,0.370418 -0.8643,0.518585 -0.10372,-0.212373 -0.24695,-0.409929 -0.4445,-0.572913 0.0346,-0.03951 0.0691,-0.07408 0.0988,-0.113594 h 1.43722 v -1.096436 h -0.98284 c 0.13829,-0.158045 0.27164,-0.335845 0.37536,-0.508707 l -0.2667,-0.197556 -0.084,0.0247 h -0.8248 c 0.0543,-0.0889 0.10372,-0.177801 0.14817,-0.266701 l -0.43463,-0.07902 c -0.20249,0.404989 -0.57291,0.903818 -1.10137,1.269297 0.0938,0.05927 0.23213,0.202495 0.29633,0.291395 0.0692,-0.05927 0.14323,-0.113595 0.21238,-0.172862 v 0.735897 h 0.69144 c -0.22719,0.187678 -0.56797,0.365478 -1.05198,0.518584 0.0889,0.07408 0.20249,0.197556 0.25188,0.27164 0.41981,-0.128412 0.7359,-0.286457 0.97296,-0.454379 0.0642,0.05433 0.11854,0.113594 0.16299,0.1778 -0.31115,0.27164 -0.89888,0.553157 -1.36314,0.686507 0.084,0.06915 0.19262,0.202495 0.25188,0.286456 0.40499,-0.143228 0.91864,-0.429684 1.27424,-0.71614 0.0395,0.07408 0.0642,0.153106 0.0889,0.227189 -0.38523,0.370418 -1.07174,0.726019 -1.66935,0.89888 0.0889,0.07408 0.20744,0.217312 0.26176,0.321029 0.49883,-0.172862 1.06681,-0.488951 1.48661,-0.839613 0.0198,0.251884 -0.0247,0.459317 -0.10865,0.543279 -0.0593,0.0889 -0.12841,0.09878 -0.22719,0.09878 -0.0741,0 -0.18768,-0.0049 -0.31115,-0.01976 0.0691,0.113595 0.0988,0.286456 0.10371,0.395112 0.1136,0.0049 0.21238,0.0099 0.30128,0.0049 0.18768,0 0.32596,-0.04445 0.44944,-0.187678 0.20249,-0.202495 0.27164,-0.716141 0.11853,-1.219909 0.0692,-0.02963 0.14323,-0.0642 0.21731,-0.09878 0.16299,0.518585 0.4445,0.977903 0.81986,1.224848 0.0642,-0.103717 0.19756,-0.256823 0.2914,-0.335846 -0.35561,-0.197556 -0.63218,-0.602545 -0.77541,-1.047046 0.17286,-0.09384 0.34572,-0.18274 0.50377,-0.281518 z"
         style="font-family:'Noto Sans CJK SC';-inkscape-font-specification:'Noto Sans CJK SC Medium'"
         id="path502" />
      <path
         d="m 124.35835,94.415511 q 0.0346,-0.454379 0.35067,-0.711202 0.31608,-0.256823 0.81985,-0.256823 0.33585,0 0.57785,0.123473 0.24695,0.118534 0.37042,0.325967 0.12841,0.207434 0.12841,0.469196 0,0.306212 -0.1778,0.528462 -0.17286,0.222251 -0.45438,0.286456 v 0.0247 q 0.32103,0.07902 0.50871,0.311151 0.18768,0.232128 0.18768,0.607484 0,0.281518 -0.12841,0.508707 -0.12841,0.22225 -0.38524,0.350662 -0.25682,0.128411 -0.61736,0.128411 -0.52352,0 -0.85937,-0.271639 -0.33584,-0.276579 -0.37535,-0.780346 h 0.43462 q 0.0346,0.296334 0.242,0.484012 0.20744,0.187678 0.55316,0.187678 0.34572,0 0.52353,-0.1778 0.18273,-0.18274 0.18273,-0.469196 0,-0.370417 -0.24694,-0.533401 -0.24695,-0.162984 -0.74577,-0.162984 h -0.1136 v -0.375356 h 0.11853 q 0.45438,-0.0049 0.68651,-0.148167 0.23213,-0.148167 0.23213,-0.454379 0,-0.261762 -0.17286,-0.419807 -0.16792,-0.158044 -0.48401,-0.158044 -0.30622,0 -0.49389,0.158044 -0.18768,0.158045 -0.22225,0.424746 z"
         style="text-align:center;text-anchor:middle"
         id="path504" />
    </g>
    <g
       aria-label="自定义映像 2"
       id="text1670-4"
       style="font-weight:500;font-size:4.9389px;line-height:1.25;font-family:Poppins;-inkscape-font-specification:'Poppins, Medium';letter-spacing:0px;fill:#ffffff;stroke-width:0.264583">
      <path
         d="m 99.398617,112.68544 v -0.63712 h 2.499083 v 0.63712 z m 2.499083,-1.69404 v 0.63218 h -2.499083 v -0.63218 z m 0,-1.05693 v 0.63218 h -2.499083 v -0.63218 z m -1.2446,-0.43956 c 0.084,-0.1778 0.16298,-0.39017 0.242,-0.59761 l -0.54821,-0.0642 c -0.0346,0.19261 -0.0938,0.44944 -0.16299,0.66181 h -1.244601 v 3.88198 h 0.459318 v -0.26671 h 2.499083 v 0.24695 h 0.48401 v -3.86222 z"
         style="font-family:'Noto Sans CJK SC';-inkscape-font-specification:'Noto Sans CJK SC Medium';text-align:center;text-anchor:middle"
         id="path532" />
      <path
         d="m 103.95228,109.811 h 3.20535 v 0.69638 h 0.46919 v -1.131 h -1.72861 c -0.0593,-0.16793 -0.17286,-0.40005 -0.27658,-0.58279 l -0.45438,0.13335 c 0.0692,0.13829 0.14817,0.30621 0.19756,0.44944 h -1.86197 v 1.131 h 0.44944 z m 1.84221,2.11385 h 1.41253 v -0.42969 h -1.41253 v -0.71614 h 1.16558 v -0.43462 h -2.7806 v 0.43462 h 1.14089 v 1.88172 c -0.34572,-0.1531 -0.6223,-0.41486 -0.8001,-0.87912 0.0494,-0.19262 0.084,-0.40499 0.11359,-0.6223 l -0.46426,-0.0494 c -0.0988,0.86925 -0.35066,1.56069 -0.889,1.96568 0.10372,0.0692 0.29634,0.22719 0.36548,0.31115 0.30621,-0.2667 0.53834,-0.61736 0.70132,-1.03717 0.44944,0.78529 1.15571,0.94827 2.12867,0.94827 h 1.1804 c 0.0198,-0.13829 0.0938,-0.3556 0.16792,-0.46425 -0.28152,0.005 -1.10631,0.005 -1.32362,0.005 -0.25189,0 -0.48896,-0.01 -0.70627,-0.0494 z"
         style="font-family:'Noto Sans CJK SC';-inkscape-font-specification:'Noto Sans CJK SC Medium';text-align:center;text-anchor:middle"
         id="path534" />
      <path
         d="m 110.93589,109.99868 c -0.10866,-0.32103 -0.32597,-0.8001 -0.51859,-1.17546 l -0.39511,0.14323 c 0.1778,0.38029 0.40005,0.88406 0.48895,1.20509 z m 0.96308,-0.79517 c -0.28645,0.92852 -0.71614,1.74838 -1.37795,2.41019 -0.59761,-0.60255 -1.05199,-1.34338 -1.35326,-2.17312 l -0.42968,0.13335 c 0.34078,0.91864 0.80998,1.72368 1.43228,2.37067 -0.52353,0.43463 -1.16064,0.78529 -1.95087,1.03223 0.084,0.10372 0.19262,0.28152 0.24695,0.40006 0.82973,-0.27658 1.49648,-0.65194 2.03482,-1.11126 0.55316,0.48402 1.2051,0.85937 1.97063,1.10138 0.0691,-0.12347 0.21237,-0.32103 0.31608,-0.41487 -0.74083,-0.21237 -1.37795,-0.56797 -1.92123,-1.02235 0.69639,-0.7112 1.16558,-1.58539 1.50637,-2.58305 z"
         style="font-family:'Noto Sans CJK SC';-inkscape-font-specification:'Noto Sans CJK SC Medium';text-align:center;text-anchor:middle"
         id="path536" />
      <path
         d="m 114.27952,109.58875 v 0.99272 h -0.51364 v -0.99272 z m -0.51364,2.43982 v -1.04211 h 0.51364 v 1.04211 z m 0.92851,0.40992 v -3.25967 h -1.34832 v 3.67454 h 0.41981 v -0.41487 z m 0.83467,-1.22978 v -1.19522 h 0.51859 v 0.73096 c 0,0.15805 -0.005,0.31609 -0.0198,0.46426 z m 1.51131,-1.19522 v 1.19522 h -0.58773 c 0.01,-0.14817 0.0148,-0.31115 0.0148,-0.46426 v -0.73096 z m 0.6865,1.61009 v -0.41487 h -0.26176 v -1.61008 h -0.99765 v -0.73096 h -0.41981 v 0.73096 h -0.92851 v 1.61008 h -0.2914 v 0.41487 h 1.13101 c -0.14817,0.56303 -0.51365,1.05198 -1.38289,1.39277 0.0988,0.079 0.22719,0.24694 0.28645,0.34572 0.83962,-0.34572 1.24954,-0.8248 1.44216,-1.37302 0.24201,0.63218 0.60749,1.1162 1.1557,1.40265 0.0642,-0.11853 0.19756,-0.28645 0.29634,-0.37535 -0.57291,-0.24695 -0.95815,-0.75566 -1.16558,-1.39277 z"
         style="font-family:'Noto Sans CJK SC';-inkscape-font-specification:'Noto Sans CJK SC Medium';text-align:center;text-anchor:middle"
         id="path538" />
      <path
         d="m 119.15916,108.85779 c -0.24695,0.72108 -0.66182,1.44216 -1.10632,1.90642 0.079,0.10371 0.21238,0.35066 0.25189,0.46425 0.12841,-0.13829 0.24694,-0.29139 0.36547,-0.45437 v 2.58304 h 0.43463 v -3.29425 c 0.18768,-0.34078 0.3556,-0.70626 0.48401,-1.07174 z m 0.93345,1.3582 h 0.76553 c -0.0198,0.11853 -0.0692,0.26176 -0.16793,0.40993 h -0.5976 z m 1.05198,-0.67663 c -0.0741,0.11359 -0.16792,0.23707 -0.24694,0.33091 h -0.84455 c 0.0988,-0.10866 0.18768,-0.22225 0.27658,-0.33091 z m 0.78035,1.08656 h -0.8001 c 0.0593,-0.14817 0.0938,-0.2914 0.10865,-0.40993 h 0.69145 z m 0.19756,0.5087 c -0.21732,0.16299 -0.56304,0.37042 -0.86431,0.51859 -0.10372,-0.21237 -0.24695,-0.40993 -0.4445,-0.57291 0.0346,-0.0395 0.0691,-0.0741 0.0988,-0.1136 h 1.43722 v -1.09643 h -0.98285 c 0.13829,-0.15805 0.27164,-0.33585 0.37536,-0.50871 l -0.2667,-0.19756 -0.084,0.0247 h -0.8248 c 0.0543,-0.0889 0.10372,-0.1778 0.14817,-0.2667 l -0.43462,-0.079 c -0.2025,0.40498 -0.57292,0.90381 -1.10138,1.26929 0.0938,0.0593 0.23213,0.2025 0.29634,0.2914 0.0691,-0.0593 0.14322,-0.1136 0.21237,-0.17286 v 0.73589 h 0.69144 c -0.22719,0.18768 -0.56797,0.36548 -1.05198,0.51859 0.0889,0.0741 0.20249,0.19755 0.25188,0.27164 0.41981,-0.12842 0.7359,-0.28646 0.97297,-0.45438 0.0642,0.0543 0.11853,0.11359 0.16298,0.1778 -0.31115,0.27164 -0.89888,0.55315 -1.36314,0.6865 0.084,0.0692 0.19262,0.2025 0.25189,0.28646 0.40499,-0.14323 0.91863,-0.42968 1.27423,-0.71614 0.0395,0.0741 0.0642,0.15311 0.0889,0.22719 -0.38523,0.37042 -1.07174,0.72602 -1.66934,0.89888 0.0889,0.0741 0.20743,0.21731 0.26176,0.32103 0.49883,-0.17286 1.0668,-0.48895 1.48661,-0.83961 0.0197,0.25188 -0.0247,0.45931 -0.10866,0.54327 -0.0593,0.0889 -0.12841,0.0988 -0.22719,0.0988 -0.0741,0 -0.18768,-0.005 -0.31115,-0.0198 0.0691,0.11359 0.0988,0.28645 0.10372,0.39511 0.11359,0.005 0.21237,0.01 0.30127,0.005 0.18768,0 0.32597,-0.0444 0.44944,-0.18768 0.20249,-0.2025 0.27164,-0.71614 0.11853,-1.21991 0.0691,-0.0296 0.14323,-0.0642 0.21731,-0.0988 0.16299,0.51859 0.44451,0.97791 0.81986,1.22485 0.0642,-0.10372 0.19756,-0.25682 0.2914,-0.33584 -0.3556,-0.19756 -0.63218,-0.60255 -0.77541,-1.04705 0.17286,-0.0938 0.34572,-0.18274 0.50377,-0.28152 z"
         style="font-family:'Noto Sans CJK SC';-inkscape-font-specification:'Noto Sans CJK SC Medium';text-align:center;text-anchor:middle"
         id="path540" />
      <path
         d="m 124.41909,112.62123 q 0.62724,-0.50376 0.98284,-0.82479 0.3556,-0.32597 0.5976,-0.67663 0.24695,-0.3556 0.24695,-0.69639 0,-0.32103 -0.15805,-0.50376 -0.1531,-0.18768 -0.49883,-0.18768 -0.33584,0 -0.52352,0.21237 -0.18274,0.20743 -0.19755,0.5581 h -0.43463 q 0.0198,-0.55316 0.33585,-0.85443 0.31609,-0.30128 0.81492,-0.30128 0.5087,0 0.80504,0.28152 0.30127,0.28152 0.30127,0.77541 0,0.40993 -0.24695,0.8001 -0.242,0.38523 -0.55315,0.68157 -0.31115,0.29139 -0.79517,0.68157 h 1.69899 v 0.37535 h -2.37561 z"
         style="text-align:center;text-anchor:middle"
         id="path542" />
    </g>
    <g
       aria-label="自定义映像 1"
       id="text1670-7"
       style="font-weight:500;font-size:4.9389px;line-height:1.25;font-family:Poppins;-inkscape-font-specification:'Poppins, Medium';letter-spacing:0px;stroke-width:0.264583">
      <path
         d="m 99.265306,128.21392 v -0.63712 h 2.499084 v 0.63712 z m 2.499084,-1.69404 v 0.63218 h -2.499084 v -0.63218 z m 0,-1.05693 v 0.63218 h -2.499084 v -0.63218 z m -1.2446,-0.43956 c 0.084,-0.1778 0.16298,-0.39017 0.242,-0.59761 l -0.54822,-0.0642 c -0.0346,0.19262 -0.0938,0.44944 -0.16298,0.66181 h -1.244602 v 3.88198 h 0.459318 v -0.2667 h 2.499084 v 0.24694 h 0.48401 v -3.86222 z"
         style="font-family:'Noto Sans CJK SC';-inkscape-font-specification:'Noto Sans CJK SC Medium';text-align:center;text-anchor:middle"
         id="path545" />
      <path
         d="m 103.81897,125.33948 h 3.20535 v 0.69639 h 0.46919 v -1.13101 h -1.72861 c -0.0593,-0.16793 -0.17286,-0.40005 -0.27658,-0.58279 l -0.45438,0.13335 c 0.0691,0.13829 0.14817,0.30621 0.19756,0.44944 h -1.86197 v 1.13101 h 0.44944 z m 1.84221,2.11385 h 1.41253 v -0.42968 h -1.41253 v -0.71615 h 1.16558 v -0.43462 h -2.7806 v 0.43462 h 1.14089 v 1.88173 c -0.34573,-0.15311 -0.6223,-0.41487 -0.8001,-0.87913 0.0494,-0.19262 0.084,-0.40499 0.11359,-0.6223 l -0.46426,-0.0494 c -0.0988,0.86925 -0.35066,1.56069 -0.889,1.96568 0.10372,0.0691 0.29634,0.22719 0.36548,0.31115 0.30621,-0.2667 0.53834,-0.61736 0.70132,-1.03717 0.44944,0.78529 1.15571,0.94827 2.12867,0.94827 h 1.1804 c 0.0198,-0.13829 0.0938,-0.3556 0.16792,-0.46425 -0.28152,0.005 -1.10631,0.005 -1.32363,0.005 -0.25188,0 -0.48895,-0.01 -0.70626,-0.0494 z"
         style="font-family:'Noto Sans CJK SC';-inkscape-font-specification:'Noto Sans CJK SC Medium';text-align:center;text-anchor:middle"
         id="path547" />
      <path
         d="m 110.80258,125.52716 c -0.10866,-0.32103 -0.32597,-0.8001 -0.51859,-1.17546 l -0.39511,0.14323 c 0.1778,0.38029 0.40005,0.88406 0.48895,1.20509 z m 0.96308,-0.79516 c -0.28645,0.92851 -0.71614,1.74837 -1.37795,2.41018 -0.59761,-0.60255 -1.05199,-1.34338 -1.35326,-2.17312 l -0.42968,0.13335 c 0.34078,0.91864 0.80998,1.72368 1.43228,2.37067 -0.52353,0.43463 -1.16064,0.78529 -1.95087,1.03224 0.084,0.10371 0.19262,0.28151 0.24695,0.40005 0.82973,-0.27658 1.49648,-0.65194 2.03482,-1.11126 0.55316,0.48402 1.20509,0.85937 1.97062,1.10138 0.0691,-0.12347 0.21238,-0.32103 0.31609,-0.41487 -0.74083,-0.21237 -1.37795,-0.56797 -1.92123,-1.02235 0.69639,-0.7112 1.16558,-1.58539 1.50637,-2.58305 z"
         style="font-family:'Noto Sans CJK SC';-inkscape-font-specification:'Noto Sans CJK SC Medium';text-align:center;text-anchor:middle"
         id="path549" />
      <path
         d="m 114.14621,125.11723 v 0.99272 h -0.51364 v -0.99272 z m -0.51364,2.43982 v -1.04211 h 0.51364 v 1.04211 z m 0.92851,0.40992 v -3.25967 h -1.34832 v 3.67454 h 0.41981 v -0.41487 z m 0.83467,-1.22978 v -1.19521 h 0.51859 v 0.73095 c 0,0.15805 -0.005,0.31609 -0.0198,0.46426 z m 1.51131,-1.19521 v 1.19521 h -0.58773 c 0.01,-0.14817 0.0148,-0.31115 0.0148,-0.46426 v -0.73095 z m 0.6865,1.61008 v -0.41487 h -0.26176 v -1.61008 h -0.99766 v -0.73096 h -0.4198 v 0.73096 h -0.92852 v 1.61008 h -0.29139 v 0.41487 h 1.13101 c -0.14817,0.56303 -0.51365,1.05198 -1.38289,1.39277 0.0988,0.079 0.22719,0.24694 0.28645,0.34572 0.83961,-0.34572 1.24954,-0.8248 1.44216,-1.37301 0.24201,0.63217 0.60749,1.11619 1.1557,1.40264 0.0642,-0.11853 0.19756,-0.28645 0.29634,-0.37535 -0.57292,-0.24695 -0.95815,-0.75566 -1.16558,-1.39277 z"
         style="font-family:'Noto Sans CJK SC';-inkscape-font-specification:'Noto Sans CJK SC Medium';text-align:center;text-anchor:middle"
         id="path551" />
      <path
         d="m 119.02584,124.38627 c -0.24694,0.72108 -0.66181,1.44216 -1.10631,1.90642 0.079,0.10371 0.21237,0.35066 0.25189,0.46425 0.12841,-0.13828 0.24694,-0.29139 0.36547,-0.45437 v 2.58304 h 0.43463 v -3.29425 c 0.18768,-0.34078 0.3556,-0.70626 0.48401,-1.07174 z m 0.93346,1.3582 h 0.76553 c -0.0198,0.11853 -0.0691,0.26176 -0.16793,0.40993 h -0.5976 z m 1.05198,-0.67663 c -0.0741,0.1136 -0.16792,0.23707 -0.24694,0.33091 h -0.84455 c 0.0988,-0.10866 0.18767,-0.22225 0.27657,-0.33091 z m 0.78035,1.08656 h -0.8001 c 0.0593,-0.14817 0.0938,-0.2914 0.10865,-0.40993 h 0.69145 z m 0.19755,0.50871 c -0.21731,0.16298 -0.56303,0.37041 -0.8643,0.51858 -0.10372,-0.21237 -0.24695,-0.40993 -0.4445,-0.57291 0.0346,-0.0395 0.0691,-0.0741 0.0988,-0.1136 h 1.43722 v -1.09643 h -0.98284 c 0.13829,-0.15805 0.27164,-0.33585 0.37536,-0.50871 l -0.2667,-0.19756 -0.084,0.0247 h -0.8248 c 0.0543,-0.0889 0.10372,-0.1778 0.14817,-0.2667 l -0.43462,-0.079 c -0.2025,0.40499 -0.57292,0.90381 -1.10138,1.26929 0.0938,0.0593 0.23213,0.2025 0.29633,0.2914 0.0691,-0.0593 0.14323,-0.1136 0.21238,-0.17286 v 0.73589 h 0.69144 c -0.22719,0.18768 -0.56797,0.36548 -1.05198,0.51859 0.0889,0.0741 0.20249,0.19755 0.25188,0.27164 0.41981,-0.12841 0.7359,-0.28646 0.97296,-0.45438 0.0642,0.0543 0.11854,0.11359 0.16299,0.1778 -0.31115,0.27164 -0.89888,0.55316 -1.36314,0.68651 0.084,0.0691 0.19262,0.20249 0.25189,0.28645 0.40499,-0.14323 0.91863,-0.42968 1.27423,-0.71614 0.0395,0.0741 0.0642,0.15311 0.0889,0.22719 -0.38523,0.37042 -1.07174,0.72602 -1.66935,0.89888 0.0889,0.0741 0.20744,0.21731 0.26177,0.32103 0.49882,-0.17286 1.0668,-0.48895 1.4866,-0.83961 0.0198,0.25188 -0.0247,0.45931 -0.10865,0.54327 -0.0593,0.0889 -0.12841,0.0988 -0.22719,0.0988 -0.0741,0 -0.18768,-0.005 -0.31115,-0.0197 0.0691,0.11359 0.0988,0.28645 0.10372,0.39511 0.11359,0.005 0.21237,0.01 0.30127,0.005 0.18768,0 0.32597,-0.0444 0.44944,-0.18768 0.20249,-0.20249 0.27164,-0.71614 0.11853,-1.21991 0.0691,-0.0296 0.14323,-0.0642 0.21731,-0.0988 0.16299,0.51859 0.4445,0.97791 0.81986,1.22485 0.0642,-0.10372 0.19756,-0.25682 0.2914,-0.33584 -0.3556,-0.19756 -0.63218,-0.60255 -0.77541,-1.04705 0.17286,-0.0938 0.34572,-0.18274 0.50377,-0.28152 z"
         style="font-family:'Noto Sans CJK SC';-inkscape-font-specification:'Noto Sans CJK SC Medium';text-align:center;text-anchor:middle"
         id="path553" />
      <path
         d="m 124.22157,125.34936 v -0.40993 h 0.92851 v 3.57082 h -0.45438 v -3.16089 z"
         style="text-align:center;text-anchor:middle"
         id="path555" />
    </g>
    <g
       aria-label="基本映像"
       id="text1670-2"
       style="font-weight:500;font-size:4.9389px;line-height:1.25;font-family:Poppins;-inkscape-font-specification:'Poppins, Medium';letter-spacing:0px;stroke-width:0.264583">
      <path
         d="m 102.9977,145.96953 h 1.67923 v 0.29633 h -1.67923 z m 1.67923,-1.22979 v 0.27658 h -1.67923 v -0.27658 z m -1.67923,0.61243 h 1.67923 v 0.28151 h -1.67923 z m 3.07694,1.29399 v -0.3803 h -0.92852 v -1.52612 h 0.70627 v -0.37535 h -0.70627 v -0.42475 h -0.46919 v 0.42475 h -1.67923 v -0.42969 h -0.45932 v 0.42969 h -0.71614 v 0.37535 h 0.71614 v 1.52612 h -0.95814 v 0.3803 h 1.01741 c -0.28152,0.30621 -0.67663,0.58279 -1.0668,0.73096 0.0988,0.079 0.23213,0.242 0.29633,0.35066 0.28152,-0.13335 0.56798,-0.32103 0.81492,-0.54328 v 0.32597 h 0.94333 v 0.43956 h -1.59526 v 0.38029 h 3.71899 v -0.38029 h -1.65947 v -0.43956 h 0.9779 v -0.36548 h -0.9779 v -0.37042 h -0.46426 v 0.37042 h -0.90382 c 0.16299,-0.15311 0.31609,-0.32597 0.43462,-0.49883 h 1.4718 c 0.30127,0.42968 0.77047,0.81986 1.2446,1.02729 0.0691,-0.10866 0.20249,-0.27164 0.30127,-0.3556 -0.38029,-0.13335 -0.77047,-0.38523 -1.04704,-0.67169 z"
         style="font-family:'Noto Sans CJK SC';-inkscape-font-specification:'Noto Sans CJK SC Medium';text-align:center;text-anchor:middle"
         id="path558" />
      <path
         d="m 109.0034,147.12029 v -1.72861 h 0.0543 c 0.24201,0.64206 0.58773,1.25448 1.0026,1.72861 z m -1.56069,0 c 0.41981,-0.47413 0.77047,-1.08162 1.01248,-1.72861 h 0.0642 v 1.72861 z m 3.47699,-1.72861 v -0.46426 h -1.9163 v -0.99766 h -0.48401 v 0.99766 h -1.8916 v 0.46426 h 1.36314 c -0.33585,0.79516 -0.89394,1.54587 -1.51624,1.94099 0.11359,0.0938 0.26176,0.25682 0.34078,0.37535 0.21237,-0.15804 0.41487,-0.34572 0.61242,-0.56303 v 0.43956 h 1.0915 v 0.87419 h 0.48401 v -0.87419 h 1.0915 v -0.42968 c 0.18274,0.20743 0.38523,0.39017 0.59761,0.53834 0.079,-0.13335 0.24694,-0.31115 0.36054,-0.40499 -0.63218,-0.38524 -1.19522,-1.11619 -1.536,-1.89654 z"
         style="font-family:'Noto Sans CJK SC';-inkscape-font-specification:'Noto Sans CJK SC Medium';text-align:center;text-anchor:middle"
         id="path560" />
      <path
         d="m 112.54459,144.68048 v 0.99272 h -0.51364 v -0.99272 z m -0.51364,2.43981 v -1.0421 h 0.51364 v 1.0421 z m 0.92851,0.40993 v -3.25967 h -1.34832 v 3.67454 h 0.41981 v -0.41487 z m 0.83468,-1.22978 v -1.19522 h 0.51858 v 0.73096 c 0,0.15804 -0.005,0.31609 -0.0198,0.46426 z m 1.5113,-1.19522 v 1.19522 h -0.58773 c 0.01,-0.14817 0.0148,-0.31115 0.0148,-0.46426 v -0.73096 z m 0.68651,1.61008 v -0.41486 h -0.26176 v -1.61008 h -0.99766 v -0.73096 h -0.41981 v 0.73096 h -0.92851 v 1.61008 h -0.2914 v 0.41486 h 1.13101 c -0.14817,0.56304 -0.51364,1.05199 -1.38289,1.39277 0.0988,0.079 0.22719,0.24695 0.28646,0.34573 0.83961,-0.34573 1.24954,-0.8248 1.44215,-1.37302 0.24201,0.63218 0.60749,1.11619 1.15571,1.40265 0.0642,-0.11853 0.19755,-0.28646 0.29633,-0.37536 -0.57291,-0.24694 -0.95815,-0.75565 -1.16558,-1.39277 z"
         style="font-family:'Noto Sans CJK SC';-inkscape-font-specification:'Noto Sans CJK SC Medium';text-align:center;text-anchor:middle"
         id="path562" />
      <path
         d="m 117.42423,143.94952 c -0.24695,0.72108 -0.66181,1.44216 -1.10632,1.90642 0.079,0.10371 0.21238,0.35066 0.25189,0.46425 0.12841,-0.13829 0.24694,-0.29139 0.36548,-0.45438 v 2.58305 h 0.43462 v -3.29425 c 0.18768,-0.34078 0.3556,-0.70626 0.48401,-1.07174 z m 0.93345,1.3582 h 0.76553 c -0.0198,0.11853 -0.0691,0.26176 -0.16792,0.40993 h -0.59761 z m 1.05199,-0.67663 c -0.0741,0.11359 -0.16793,0.23707 -0.24695,0.3309 h -0.84455 c 0.0988,-0.10865 0.18768,-0.22225 0.27658,-0.3309 z m 0.78034,1.08656 h -0.8001 c 0.0593,-0.14817 0.0938,-0.2914 0.10866,-0.40993 h 0.69144 z m 0.19756,0.5087 c -0.21731,0.16299 -0.56304,0.37042 -0.86431,0.51859 -0.10372,-0.21238 -0.24694,-0.40993 -0.4445,-0.57291 0.0346,-0.0395 0.0691,-0.0741 0.0988,-0.1136 h 1.43722 v -1.09644 h -0.98284 c 0.13829,-0.15804 0.27164,-0.33584 0.37535,-0.5087 l -0.2667,-0.19756 -0.084,0.0247 h -0.8248 c 0.0543,-0.0889 0.10372,-0.1778 0.14817,-0.2667 l -0.43462,-0.079 c -0.2025,0.40499 -0.57291,0.90382 -1.10138,1.2693 0.0938,0.0593 0.23213,0.2025 0.29634,0.2914 0.0691,-0.0593 0.14323,-0.1136 0.21237,-0.17287 v 0.7359 h 0.69145 c -0.22719,0.18768 -0.56798,0.36548 -1.05199,0.51858 0.0889,0.0741 0.2025,0.19756 0.25188,0.27164 0.41981,-0.12841 0.7359,-0.28645 0.97297,-0.45437 0.0642,0.0543 0.11853,0.11359 0.16298,0.1778 -0.31115,0.27164 -0.89888,0.55315 -1.36313,0.6865 0.084,0.0692 0.19261,0.2025 0.25188,0.28646 0.40499,-0.14323 0.91863,-0.42969 1.27424,-0.71614 0.0395,0.0741 0.0642,0.1531 0.0889,0.22719 -0.38524,0.37042 -1.07175,0.72602 -1.66935,0.89888 0.0889,0.0741 0.20743,0.21731 0.26176,0.32103 0.49883,-0.17287 1.0668,-0.48895 1.48661,-0.83962 0.0198,0.25189 -0.0247,0.45932 -0.10866,0.54328 -0.0593,0.0889 -0.12841,0.0988 -0.22719,0.0988 -0.0741,0 -0.18768,-0.005 -0.31115,-0.0198 0.0692,0.1136 0.0988,0.28646 0.10372,0.39512 0.11359,0.005 0.21237,0.01 0.30127,0.005 0.18768,0 0.32597,-0.0445 0.44944,-0.18768 0.2025,-0.2025 0.27164,-0.71614 0.11854,-1.21991 0.0691,-0.0296 0.14322,-0.0642 0.21731,-0.0988 0.16298,0.51859 0.4445,0.9779 0.81985,1.22485 0.0642,-0.10372 0.19756,-0.25682 0.2914,-0.33585 -0.3556,-0.19755 -0.63218,-0.60254 -0.77541,-1.04704 0.17286,-0.0938 0.34573,-0.18274 0.50377,-0.28152 z"
         style="font-family:'Noto Sans CJK SC';-inkscape-font-specification:'Noto Sans CJK SC Medium';text-align:center;text-anchor:middle"
         id="path564" />
    </g>
  </g>
</svg>
