<?xml version="1.0" encoding="UTF-8" standalone="no"?>
<svg
   width="950"
   height="70"
   viewBox="0 0 251.35 18.52"
   version="1.1"
   id="svg8"
   sodipodi:docname="container-workflow.svg"
   inkscape:version="1.2.2 (732a01da63, 2022-12-09)"
   xmlns:inkscape="http://www.inkscape.org/namespaces/inkscape"
   xmlns:sodipodi="http://sodipodi.sourceforge.net/DTD/sodipodi-0.dtd"
   xmlns="http://www.w3.org/2000/svg"
   xmlns:svg="http://www.w3.org/2000/svg">
  <sodipodi:namedview
     id="namedview676"
     pagecolor="#ffffff"
     bordercolor="#000000"
     borderopacity="0.25"
     inkscape:showpageshadow="2"
     inkscape:pageopacity="0.0"
     inkscape:pagecheckerboard="0"
     inkscape:deskcolor="#d1d1d1"
     showgrid="false"
     inkscape:zoom="1.5715789"
     inkscape:cx="475.63632"
     inkscape:cy="34.996652"
     inkscape:window-width="1920"
     inkscape:window-height="1009"
     inkscape:window-x="-8"
     inkscape:window-y="-8"
     inkscape:window-maximized="1"
     inkscape:current-layer="svg8" />
  <defs
     id="defs2">
    <marker
       markerWidth="3.06"
       markerHeight="4.71"
       refX="1.53"
       refY="2.35"
       orient="auto"
       id="marker8836481">
      <path
         style="fill:#fff;fill-opacity:0;stroke:#0c322c;stroke-width:.999999px;stroke-linecap:butt;stroke-linejoin:miter;stroke-opacity:1"
         d="m.35.35 2 2-2 2"
         id="path2261" />
    </marker>
    <marker
       markerWidth="3.06"
       markerHeight="4.71"
       refX="1.53"
       refY="2.35"
       orient="auto"
       id="marker88364814090">
      <path
         style="fill:#fff;fill-opacity:0;stroke:#505050;stroke-width:.999999px;stroke-linecap:butt;stroke-linejoin:miter;stroke-opacity:1"
         d="m.35.35 2 2-2 2"
         id="path1408" />
    </marker>
    <marker
       markerWidth="3.06"
       markerHeight="4.71"
       refX="1.53"
       refY="2.35"
       orient="auto"
       id="marker88364814090-0">
      <path
         style="fill:#fff;fill-opacity:0;stroke:#505050;stroke-width:.999999px;stroke-linecap:butt;stroke-linejoin:miter;stroke-opacity:1"
         d="m.35.35 2 2-2 2"
         id="path1408-3" />
    </marker>
    <marker
       markerWidth="3.06"
       markerHeight="4.71"
       refX="1.53"
       refY="2.35"
       orient="auto"
       id="marker88364814090-9">
      <path
         style="fill:#fff;fill-opacity:0;stroke:#505050;stroke-width:.999999px;stroke-linecap:butt;stroke-linejoin:miter;stroke-opacity:1"
         d="m.35.35 2 2-2 2"
         id="path1408-2" />
    </marker>
    <marker
       markerWidth="3.06"
       markerHeight="4.71"
       refX="1.53"
       refY="2.35"
       orient="auto"
       id="marker88364814090-4">
      <path
         style="fill:#fff;fill-opacity:0;stroke:#505050;stroke-width:.999999px;stroke-linecap:butt;stroke-linejoin:miter;stroke-opacity:1"
         d="m.35.35 2 2-2 2"
         id="path1408-0" />
    </marker>
  </defs>
  <g
     id="layer1"
     transform="translate(0 -55.56)">
    <rect
       style="fill:#30ba78;stroke:none;stroke-width:.79375;stroke-linecap:square;paint-order:fill markers stroke;stop-color:#000"
       id="rect30"
       width="37.04"
       height="13.23"
       x="2.65"
       y="58.21" />
    <g
       aria-label="注册表"
       id="text34"
       style="font-weight:500;font-size:4.23333px;line-height:1.25;font-family:Poppins;-inkscape-font-specification:'Poppins, Medium';letter-spacing:0;stroke-width:0.264583">
      <path
         d="M 16.984936,63.005566 C 16.92567,62.823533 16.764803,62.535667 16.62087,62.319767 l -0.283633,0.1016 c 0.1397,0.220133 0.287866,0.520699 0.347133,0.702733 z m -1.579032,-0.1778 C 15.223871,62.696533 14.868271,62.506033 14.605805,62.3875 l -0.173567,0.2286 c 0.270934,0.131233 0.618067,0.334433 0.791633,0.4699 z m -0.2413,1.143 c -0.177799,-0.122767 -0.524932,-0.309034 -0.787399,-0.427567 l -0.169333,0.232833 c 0.2667,0.131234 0.609599,0.325967 0.778933,0.461433 z m -0.02963,0.618066 c -0.245533,0.478366 -0.571499,1.037165 -0.800099,1.354665 l 0.262466,0.2159 c 0.245533,-0.3937 0.541867,-0.918633 0.766233,-1.363132 z m 1.731432,1.185332 v -1.087966 h 0.952499 v -0.300566 h -0.952499 v -0.944033 h 1.104899 v -0.300566 h -2.539998 v 0.300566 h 1.109133 v 0.944033 h -0.9398 v 0.300566 h 0.9398 v 1.087966 h -1.236133 v 0.300566 h 2.764365 v -0.300566 z"
         style="font-weight:normal;font-family:'Noto Sans CJK SC';-inkscape-font-specification:'Noto Sans CJK SC';text-align:center;text-anchor:middle"
         id="path1101" />
      <path
         d="m 20.858433,64.004632 v -0.0889 -1.007532 h 0.673099 v 1.096432 z m -1.642532,0 V 63.911499 62.9082 h 0.592666 v 1.096432 z m 3.077631,0 H 21.840566 V 62.6161 h -1.286933 v 1.299632 0.0889 H 20.113367 V 62.6161 h -1.198032 v 1.295399 0.09313 h -0.474133 v 0.3048 h 0.465666 c -0.0254,0.563033 -0.118533,1.210732 -0.4699,1.701798 0.0635,0.03387 0.182034,0.1524 0.2286,0.220134 0.3937,-0.537633 0.512233,-1.291166 0.541866,-1.921932 h 0.601133 v 1.494365 c 0,0.0635 -0.02117,0.08467 -0.08043,0.08467 -0.05927,0.0042 -0.254,0.0042 -0.461433,0 0.0381,0.0762 0.0889,0.2032 0.1016,0.283633 0.2921,0 0.474133,-0.0042 0.592666,-0.05503 0.110067,-0.0508 0.1524,-0.1397 0.1524,-0.313267 v -1.494365 h 0.4318 c -0.02117,0.558799 -0.1016,1.202266 -0.4191,1.689098 0.0635,0.0381 0.1905,0.1524 0.237066,0.2159 0.351367,-0.529166 0.461433,-1.278465 0.486833,-1.904998 h 0.681566 v 1.511299 c 0,0.0635 -0.02117,0.08467 -0.08467,0.0889 -0.05503,0.0042 -0.258233,0.0042 -0.478366,-0.0042 0.0381,0.08043 0.08467,0.2159 0.1016,0.300567 0.309033,0 0.499532,-0.0085 0.613832,-0.05927 0.1143,-0.05503 0.156634,-0.143933 0.156634,-0.325966 v -1.511299 h 0.452966 z"
         style="font-weight:normal;font-family:'Noto Sans CJK SC';-inkscape-font-specification:'Noto Sans CJK SC';text-align:center;text-anchor:middle"
         id="path1103" />
      <path
         d="m 26.052729,64.415265 c -0.182034,0.1778 -0.478367,0.410633 -0.732366,0.5842 -0.186267,-0.220133 -0.334433,-0.4699 -0.448733,-0.7493 h 1.549398 v -0.270933 h -1.672165 v -0.376766 h 1.350432 V 63.339999 H 24.748863 V 62.9844 h 1.540932 V 62.713467 H 24.748863 V 62.3367 h -0.313266 v 0.376767 H 22.941231 V 62.9844 h 1.494366 v 0.355599 h -1.278466 v 0.262467 h 1.278466 v 0.376766 h -1.659466 v 0.270933 h 1.396999 c -0.397933,0.3556 -0.994832,0.6858 -1.519765,0.8509 0.06773,0.0635 0.160866,0.177799 0.2032,0.253999 0.232833,-0.0889 0.486833,-0.203199 0.728132,-0.342899 v 0.626532 c 0,0.1651 -0.09313,0.2413 -0.160866,0.275167 0.0508,0.07197 0.1143,0.207433 0.135466,0.287866 0.09737,-0.06773 0.249767,-0.118533 1.422399,-0.495299 -0.01693,-0.0635 -0.04233,-0.186267 -0.0508,-0.270933 l -1.024466,0.309033 v -0.935566 c 0.249767,-0.169333 0.478367,-0.359833 0.6604,-0.5588 0.321733,0.884766 0.914399,1.519766 1.782232,1.811865 0.04657,-0.08467 0.1397,-0.207433 0.207433,-0.270933 -0.4191,-0.122766 -0.770466,-0.330199 -1.062566,-0.605366 0.2667,-0.1651 0.575733,-0.381 0.817033,-0.588433 z"
         style="font-weight:normal;font-family:'Noto Sans CJK SC';-inkscape-font-specification:'Noto Sans CJK SC';text-align:center;text-anchor:middle"
         id="path1105" />
    </g>
    <rect
       style="fill:#30ba78;stroke:none;stroke-width:.79375;stroke-linecap:square;paint-order:fill markers stroke;stop-color:#000"
       id="rect30-6"
       width="39.69"
       height="13.23"
       x="52.74"
       y="58.21" />
    <g
       aria-label="基本映像"
       id="text34-5"
       style="font-weight:500;font-size:4.23333px;line-height:1.25;font-family:Poppins;-inkscape-font-specification:'Poppins, Medium';letter-spacing:0;stroke-width:0.264583">
      <path
         d="m 66.84713,65.376231 h 0.884766 V 65.117998 H 66.84713 v -0.3556 h -0.313267 v 0.3556 h -0.863599 v 0.258233 h 0.863599 v 0.4445 h -1.418165 v 0.266699 h 3.19193 V 65.820731 H 66.84713 Z m -0.910166,-1.316566 h 1.536699 v 0.300567 H 65.936964 Z M 67.473663,63.0098 v 0.283633 H 65.936964 V 63.0098 Z m -1.536699,0.520699 h 1.536699 v 0.2921 h -1.536699 z m 2.671231,1.096433 v -0.2667 H 67.791162 V 63.0098 h 0.635 v -0.262467 h -0.635 v -0.406399 h -0.317499 v 0.406399 h -1.536699 v -0.406399 h -0.309033 v 0.406399 H 64.984465 V 63.0098 h 0.643466 v 1.350432 h -0.8382 v 0.2667 h 0.9144 c -0.2413,0.300566 -0.605366,0.567266 -0.956733,0.706966 0.07197,0.05927 0.156633,0.1651 0.2032,0.2413 0.410633,-0.1905 0.838199,-0.554567 1.104899,-0.948266 h 1.325032 c 0.254,0.372533 0.664633,0.723899 1.075266,0.893232 0.04657,-0.07197 0.135467,-0.182033 0.207433,-0.2413 -0.3556,-0.126999 -0.715433,-0.372533 -0.952499,-0.651932 z"
         style="font-weight:normal;font-family:'Noto Sans CJK SC';-inkscape-font-specification:'Noto Sans CJK SC';text-align:center;text-anchor:middle"
         id="path1108" />
      <path
         d="m 72.769558,63.538966 v -0.313267 h -1.676399 v -0.884765 h -0.325966 v 0.884765 h -1.663699 v 0.313267 h 1.278466 c -0.309033,0.715433 -0.829733,1.401232 -1.388532,1.744132 0.07197,0.05927 0.173566,0.173566 0.224366,0.249766 0.6096,-0.414866 1.155699,-1.168399 1.481666,-1.993898 h 0.06773 v 1.562099 h -0.982132 v 0.313266 h 0.982132 v 0.787399 h 0.325966 v -0.787399 h 0.982133 v -0.313266 h -0.982133 v -1.562099 h 0.05927 c 0.3175,0.825499 0.863599,1.587499 1.490132,1.981198 0.0508,-0.08467 0.160867,-0.198966 0.2413,-0.2667 -0.5842,-0.330199 -1.117599,-0.999065 -1.422399,-1.714498 z"
         style="font-weight:normal;font-family:'Noto Sans CJK SC';-inkscape-font-specification:'Noto Sans CJK SC';text-align:center;text-anchor:middle"
         id="path1110" />
      <path
         d="m 74.200424,62.9336 v 0.935566 H 73.671257 V 62.9336 Z m -0.529167,2.188631 v -0.973666 h 0.529167 v 0.973666 z m 0.817033,0.287867 v -2.764365 h -1.104899 v 3.103031 h 0.287866 v -0.338666 z m 0.702733,-1.0033 v -1.104899 h 0.516466 v 0.656167 c 0,0.156633 -0.0042,0.304799 -0.02117,0.448732 z m 1.392765,-1.104899 v 1.104899 h -0.596899 c 0.0127,-0.143933 0.01693,-0.292099 0.01693,-0.444499 v -0.6604 z m 0.541866,1.392766 v -0.287867 h -0.245533 v -1.392765 h -0.876299 v -0.656166 h -0.296333 v 0.656166 h -0.804333 v 1.392765 h -0.283633 v 0.287867 h 1.020233 c -0.1143,0.507999 -0.423333,0.948266 -1.206499,1.269999 0.06773,0.05503 0.160866,0.1651 0.194733,0.232833 0.761999,-0.3175 1.104899,-0.757766 1.257299,-1.253066 0.207433,0.5842 0.546099,1.0287 1.049866,1.274233 0.04233,-0.08043 0.135466,-0.194734 0.203199,-0.254 -0.520699,-0.220133 -0.863599,-0.681566 -1.041399,-1.269999 z"
         style="font-weight:normal;font-family:'Noto Sans CJK SC';-inkscape-font-specification:'Noto Sans CJK SC';text-align:center;text-anchor:middle"
         id="path1112" />
      <path
         d="m 78.40412,62.353634 c -0.224366,0.639232 -0.588433,1.269998 -0.977899,1.680631 0.0508,0.07197 0.143933,0.232834 0.1778,0.309034 0.122766,-0.135467 0.249766,-0.296334 0.364066,-0.465667 v 2.315632 h 0.300566 v -2.802465 c 0.1651,-0.296333 0.313267,-0.622299 0.4318,-0.944032 z m 0.681566,1.117599 h 0.745066 c -0.02117,0.118533 -0.0635,0.270933 -0.1651,0.423333 h -0.579966 z m 1.015999,-0.5842 c -0.0762,0.118533 -0.1651,0.249767 -0.254,0.3429 h -0.787399 c 0.105833,-0.110067 0.194733,-0.2286 0.2794,-0.3429 z m 0.677333,1.007533 h -0.808566 c 0.0762,-0.1524 0.110067,-0.300567 0.118533,-0.423333 h 0.690033 z m 0.127,0.423333 c -0.198967,0.139699 -0.508,0.325966 -0.770466,0.461433 -0.09313,-0.198967 -0.2286,-0.385233 -0.414866,-0.537633 0.03387,-0.03387 0.06773,-0.06773 0.09737,-0.105834 h 1.253066 v -0.905932 h -0.897466 c 0.122766,-0.143933 0.245533,-0.313267 0.338666,-0.4699 l -0.186266,-0.135466 -0.05503,0.01693 h -0.766232 c 0.04657,-0.08467 0.09737,-0.1651 0.1397,-0.245533 l -0.296333,-0.05503 c -0.1778,0.355599 -0.508,0.804332 -0.973666,1.130299 0.06773,0.04233 0.160866,0.131233 0.2032,0.198966 0.08043,-0.05927 0.152399,-0.118533 0.224366,-0.186266 v 0.651932 h 0.651933 c -0.198967,0.1778 -0.503766,0.351367 -0.948266,0.4953 0.0635,0.0508 0.1397,0.1397 0.1778,0.194733 0.376766,-0.122766 0.656166,-0.270933 0.863599,-0.423333 0.0635,0.05503 0.127,0.127 0.1778,0.198967 -0.283633,0.249766 -0.804333,0.512233 -1.214966,0.634999 0.0508,0.04657 0.131233,0.1397 0.173567,0.2032 0.368299,-0.135467 0.842432,-0.397933 1.151465,-0.660399 0.04233,0.0762 0.0762,0.156633 0.1016,0.237066 -0.338666,0.338666 -0.952499,0.660399 -1.468965,0.817033 0.0635,0.0508 0.1397,0.152399 0.182033,0.220133 0.452966,-0.156633 0.982133,-0.448733 1.346199,-0.778933 0.0381,0.2667 -0.0085,0.4953 -0.09737,0.5842 -0.0635,0.07197 -0.126999,0.08043 -0.207433,0.08043 -0.0762,0 -0.169333,-0.0042 -0.2794,-0.01693 0.04657,0.0762 0.07197,0.194733 0.0762,0.270933 0.09313,0.0085 0.186267,0.0085 0.258234,0.0085 0.156633,0 0.262466,-0.02963 0.368299,-0.143933 0.182033,-0.173566 0.2413,-0.622299 0.09737,-1.066799 0.06773,-0.02963 0.1397,-0.0635 0.207433,-0.09737 0.148167,0.4572 0.410633,0.859366 0.753533,1.071033 0.04233,-0.0762 0.131233,-0.182033 0.203199,-0.237067 -0.334433,-0.173566 -0.592666,-0.541866 -0.728132,-0.948265 0.1651,-0.08467 0.325966,-0.173567 0.469899,-0.2667 z"
         style="font-weight:normal;font-family:'Noto Sans CJK SC';-inkscape-font-specification:'Noto Sans CJK SC';text-align:center;text-anchor:middle"
         id="path1114" />
    </g>
    <rect
       style="fill:#30ba78;stroke:none;stroke-width:.79375;stroke-linecap:square;paint-order:fill markers stroke;stop-color:#000"
       id="rect30-6-9"
       width="39.69"
       height="13.23"
       x="105.83"
       y="58.21" />
    <g
       aria-label="Dockerfile"
       id="text34-5-3"
       style="font-weight:500;font-size:4.23333px;line-height:1.25;font-family:Poppins;-inkscape-font-specification:'Poppins, Medium';letter-spacing:0;stroke-width:0.264583">
      <path
         d="m 116.3046,63.489372 q 0.4826,0 0.83396,0.182033 0.3556,0.1778 0.54187,0.512233 0.1905,0.334433 0.1905,0.787399 0,0.452966 -0.1905,0.787399 -0.18627,0.3302 -0.54187,0.508 -0.35136,0.173566 -0.83396,0.173566 h -0.91864 v -2.95063 z m 0,2.633131 q 0.5715,0 0.87206,-0.300567 0.30057,-0.304799 0.30057,-0.850899 0,-0.550333 -0.3048,-0.859366 -0.30057,-0.309033 -0.86783,-0.309033 h -0.5334 v 2.319865 z"
         id="path1117" />
      <path
         d="m 119.3907,66.478102 q -0.32597,0 -0.59267,-0.148166 -0.26247,-0.148167 -0.41487,-0.4191 -0.14816,-0.275166 -0.14816,-0.634999 0,-0.3556 0.1524,-0.626533 0.15663,-0.275166 0.42333,-0.4191 0.2667,-0.148166 0.5969,-0.148166 0.3302,0 0.5969,0.148166 0.2667,0.143934 0.4191,0.414867 0.15663,0.270933 0.15663,0.630766 0,0.359833 -0.16086,0.634999 -0.15664,0.270933 -0.42757,0.4191 -0.27093,0.148166 -0.60113,0.148166 z m 0,-0.338666 q 0.20743,0 0.38946,-0.09737 0.18204,-0.09737 0.2921,-0.292099 0.1143,-0.194733 0.1143,-0.474133 0,-0.2794 -0.11006,-0.474133 -0.11007,-0.194733 -0.28787,-0.287867 -0.1778,-0.09737 -0.38523,-0.09737 -0.21167,0 -0.38947,0.09737 -0.17357,0.09313 -0.2794,0.287867 -0.10583,0.194733 -0.10583,0.474133 0,0.283633 0.1016,0.478366 0.10583,0.194733 0.2794,0.2921 0.17356,0.09313 0.381,0.09313 z"
         id="path1119" />
      <path
         d="m 120.94433,65.275837 q 0,-0.359833 0.14393,-0.626533 0.14393,-0.270933 0.39793,-0.4191 0.25824,-0.148166 0.58844,-0.148166 0.42756,0 0.70273,0.207433 0.2794,0.207433 0.3683,0.575733 h -0.41487 q -0.0593,-0.211667 -0.23283,-0.334433 -0.16933,-0.122767 -0.42333,-0.122767 -0.3302,0 -0.5334,0.2286 -0.2032,0.224366 -0.2032,0.639233 0,0.419099 0.2032,0.647699 0.2032,0.2286 0.5334,0.2286 0.254,0 0.42333,-0.118533 0.16933,-0.118533 0.23283,-0.338667 h 0.41487 q -0.0931,0.3556 -0.37254,0.5715 -0.27939,0.211666 -0.69849,0.211666 -0.3302,0 -0.58844,-0.148166 -0.254,-0.148167 -0.39793,-0.4191 -0.14393,-0.270933 -0.14393,-0.634999 z"
         id="path1121" />
      <path
         d="m 124.95329,66.440002 -0.91016,-1.024465 v 1.024465 h -0.38524 v -3.132664 h 0.38524 v 1.841499 l 0.89323,-1.028699 h 0.53763 l -1.0922,1.155699 1.09643,1.164165 z"
         id="path1123" />
      <path
         d="m 127.95472,65.19117 q 0,0.110067 -0.0127,0.232833 h -1.8542 q 0.0212,0.3429 0.23283,0.537633 0.2159,0.1905 0.5207,0.1905 0.24977,0 0.41487,-0.1143 0.16933,-0.118533 0.23707,-0.313266 h 0.41486 q -0.0931,0.334433 -0.37253,0.546099 -0.2794,0.207433 -0.69427,0.207433 -0.3302,0 -0.59266,-0.148166 -0.25823,-0.148167 -0.4064,-0.4191 -0.14817,-0.275166 -0.14817,-0.634999 0,-0.359833 0.14394,-0.630766 0.14393,-0.270933 0.40216,-0.414867 0.26247,-0.148166 0.60113,-0.148166 0.3302,0 0.5842,0.143933 0.254,0.143933 0.38947,0.397933 0.1397,0.249766 0.1397,0.567266 z m -0.39793,-0.08043 q 0,-0.220133 -0.0974,-0.376766 -0.0974,-0.160867 -0.2667,-0.2413 -0.1651,-0.08467 -0.3683,-0.08467 -0.2921,0 -0.49953,0.186267 -0.2032,0.186266 -0.23284,0.516466 z"
         id="path1125" />
      <path
         d="m 128.84796,64.496904 q 0.1016,-0.198966 0.28786,-0.309033 0.1905,-0.110067 0.46144,-0.110067 v 0.397933 h -0.1016 q -0.6477,0 -0.6477,0.702733 v 1.261532 h -0.38524 v -2.319864 h 0.38524 z"
         id="path1127" />
      <path
         d="m 130.98578,64.437637 h -0.48683 v 2.002365 h -0.38523 v -2.002365 h -0.30057 v -0.317499 h 0.30057 v -0.1651 q 0,-0.389466 0.19896,-0.567266 0.2032,-0.182034 0.6477,-0.182034 v 0.321734 q -0.254,0 -0.35983,0.101599 -0.1016,0.09737 -0.1016,0.325967 v 0.1651 h 0.48683 z"
         id="path1129" />
      <path
         d="m 131.63349,63.743371 q -0.11007,0 -0.18627,-0.0762 -0.0762,-0.0762 -0.0762,-0.186266 0,-0.110067 0.0762,-0.186267 0.0762,-0.0762 0.18627,-0.0762 0.10583,0 0.1778,0.0762 0.0762,0.0762 0.0762,0.186267 0,0.110067 -0.0762,0.186266 -0.072,0.0762 -0.1778,0.0762 z m 0.18626,0.376767 v 2.319864 h -0.38523 v -2.319864 z"
         id="path1131" />
      <path
         d="m 132.86115,63.307338 v 3.132664 h -0.38523 v -3.132664 z"
         id="path1133" />
      <path
         d="m 135.63398,65.19117 q 0,0.110067 -0.0127,0.232833 h -1.85419 q 0.0212,0.3429 0.23283,0.537633 0.2159,0.1905 0.5207,0.1905 0.24976,0 0.41486,-0.1143 0.16934,-0.118533 0.23707,-0.313266 h 0.41487 q -0.0931,0.334433 -0.37254,0.546099 -0.2794,0.207433 -0.69426,0.207433 -0.3302,0 -0.59267,-0.148166 -0.25823,-0.148167 -0.4064,-0.4191 -0.14816,-0.275166 -0.14816,-0.634999 0,-0.359833 0.14393,-0.630766 0.14393,-0.270933 0.40217,-0.414867 0.26246,-0.148166 0.60113,-0.148166 0.3302,0 0.5842,0.143933 0.254,0.143933 0.38946,0.397933 0.1397,0.249766 0.1397,0.567266 z m -0.39793,-0.08043 q 0,-0.220133 -0.0974,-0.376766 -0.0974,-0.160867 -0.2667,-0.2413 -0.1651,-0.08467 -0.36829,-0.08467 -0.2921,0 -0.49954,0.186267 -0.2032,0.186266 -0.23283,0.516466 z"
         id="path1135" />
    </g>
    <rect
       style="fill:#30ba78;stroke:none;stroke-width:.79375;stroke-linecap:square;paint-order:fill markers stroke;stop-color:#000"
       id="rect30-6-9-4"
       width="37.04"
       height="13.23"
       x="211.67"
       y="58.21" />
    <g
       aria-label="容器"
       id="text34-5-3-5"
       style="font-weight:500;font-size:4.23333px;line-height:1.25;font-family:Poppins;-inkscape-font-specification:'Poppins, Medium';letter-spacing:0;stroke-width:0.264583">
      <path
         d="m 226.55869,63.564036 h 2.8829 v 0.478366 h 0.3175 V 63.27617 h -1.49437 c -0.0508,-0.127 -0.1397,-0.2921 -0.2159,-0.4191 l -0.32173,0.0762 c 0.0593,0.1016 0.12277,0.232833 0.16933,0.3429 h -1.64253 v 0.766232 h 0.3048 z m 1.81187,0.381 c 0.38946,0.2413 0.86359,0.601133 1.09219,0.842432 l 0.22014,-0.207433 c -0.23284,-0.2413 -0.71967,-0.584199 -1.1049,-0.812799 z m -1.07104,-0.182033 c -0.24553,0.309033 -0.64346,0.605366 -1.02023,0.795866 0.0677,0.05503 0.17357,0.177799 0.22013,0.237066 0.38524,-0.220133 0.8128,-0.567266 1.0922,-0.935566 z m -0.14393,1.579032 c 0.32173,-0.220134 0.61807,-0.478367 0.85937,-0.757766 0.2794,0.304799 0.57996,0.550332 0.91016,0.757766 z m -0.0212,0.990599 v -0.706966 h 1.73567 v 0.706966 z m 0.8509,-2.201332 c -0.40216,0.6223 -1.14723,1.147233 -1.92193,1.435099 0.072,0.07197 0.1524,0.1778 0.19897,0.254 0.19473,-0.0762 0.38523,-0.169333 0.56726,-0.275167 V 66.7602 h 0.3048 v -0.143933 h 1.73567 v 0.127 h 0.3175 v -1.244599 c 0.17356,0.09737 0.3556,0.1905 0.54186,0.270933 0.0466,-0.0889 0.13124,-0.198967 0.2032,-0.2667 -0.67733,-0.2667 -1.27423,-0.596899 -1.75259,-1.138766 0.0296,-0.0381 0.055,-0.0762 0.0804,-0.110066 z"
         style="font-weight:normal;font-family:'Noto Sans CJK SC';-inkscape-font-specification:'Noto Sans CJK SC';text-align:center;text-anchor:middle"
         id="path1196" />
      <path
         d="m 233.51405,63.945036 h -0.78317 v -0.5969 h 0.78317 z m 0.3048,-0.867833 h -1.38006 v 1.138766 h 1.38006 z m -1.1049,3.276597 v -0.622299 h 0.7493 V 66.3538 Z m -0.98636,0 h -0.70274 v -0.622299 h 0.70274 z m -0.0423,-2.408764 h -0.7493 v -0.5969 h 0.7493 z m 2.44263,0.977899 v -0.2794 h -0.73236 l 0.1016,-0.105833 c -0.1397,-0.110067 -0.4064,-0.2413 -0.6223,-0.313267 l -0.1651,0.1651 c 0.16933,0.0635 0.36406,0.160867 0.50376,0.254 h -1.18109 c 0.0974,-0.135466 0.18203,-0.275166 0.254,-0.414866 l -0.30057,-0.05927 v -1.092199 h -1.3335 v 1.138766 h 1.28693 c -0.0677,0.1397 -0.16086,0.287866 -0.28363,0.427566 h -1.30387 v 0.2794 h 1.03294 c -0.28364,0.245533 -0.65194,0.4699 -1.10914,0.639233 0.0593,0.0508 0.14394,0.1651 0.16934,0.237066 0.1016,-0.0381 0.19473,-0.08043 0.28786,-0.122766 v 1.075265 h 0.2921 v -0.122766 h 0.70274 v 0.1016 h 0.30056 v -1.274233 h -0.89323 c 0.26247,-0.160866 0.4826,-0.342899 0.66463,-0.533399 h 0.79163 c 0.1905,0.198966 0.43604,0.385233 0.70697,0.533399 h -0.8763 v 1.295399 h 0.2921 v -0.122766 h 0.7493 v 0.1016 h 0.3048 v -1.058333 c 0.0804,0.02963 0.16087,0.05503 0.2413,0.08043 0.0423,-0.0762 0.127,-0.1905 0.19897,-0.249767 -0.4445,-0.110066 -0.90594,-0.321733 -1.22344,-0.579966 z"
         style="font-weight:normal;font-family:'Noto Sans CJK SC';-inkscape-font-specification:'Noto Sans CJK SC';text-align:center;text-anchor:middle"
         id="path1198" />
    </g>
    <rect
       style="fill:#30ba78;stroke:none;stroke-width:.79375;stroke-linecap:square;paint-order:fill markers stroke;stop-color:#000"
       id="rect30-6-9-5"
       width="39.69"
       height="13.23"
       x="158.75"
       y="58.21" />
    <g
       aria-label="自定义映像"
       id="text34-5-3-4"
       style="font-weight:500;font-size:4.23333px;line-height:1.25;font-family:Poppins;-inkscape-font-specification:'Poppins, Medium';letter-spacing:0;stroke-width:0.264583">
      <path
         d="m 169.46658,65.676797 v -0.626532 h 2.25636 v 0.626532 z m 2.25636,-1.536698 v 0.613833 h -2.25636 v -0.613833 z m 0,-0.9271 v 0.630767 h -2.25636 v -0.630767 z m -1.19379,-0.300566 c 0.072,-0.160866 0.14816,-0.351366 0.21166,-0.533399 l -0.35983,-0.04657 c -0.0339,0.1651 -0.1016,0.3937 -0.1651,0.579966 h -1.06257 v 3.297764 h 0.31327 v -0.237066 h 2.25636 v 0.215899 h 0.32597 v -3.276597 z"
         style="font-weight:normal;font-family:'Noto Sans CJK SC';-inkscape-font-specification:'Noto Sans CJK SC';text-align:center;text-anchor:middle"
         id="path1185" />
      <path
         d="m 173.35278,63.115633 h 2.88289 v 0.618066 h 0.3175 v -0.918633 h -1.50706 c -0.0508,-0.139699 -0.15663,-0.347133 -0.24977,-0.503766 l -0.3048,0.0889 c 0.0677,0.122767 0.14394,0.283633 0.19474,0.414866 h -1.64254 v 0.918633 h 0.30904 z m 1.60443,1.807632 h 1.25306 v -0.296333 h -1.25306 v -0.690033 h 1.0795 v -0.300567 h -2.4511 v 0.300567 h 1.04987 v 1.748365 c -0.3429,-0.131233 -0.61384,-0.376766 -0.7747,-0.825499 0.0381,-0.169333 0.072,-0.351367 0.0974,-0.5461 l -0.31326,-0.03387 c -0.0931,0.761999 -0.32174,1.363132 -0.79164,1.722965 0.0762,0.04657 0.2032,0.156633 0.254,0.2159 0.2794,-0.2413 0.48684,-0.563033 0.63077,-0.956733 0.38523,0.719666 1.016,0.872066 1.89653,0.872066 h 0.9779 c 0.0169,-0.09313 0.0677,-0.237066 0.11853,-0.3175 -0.2032,0.0085 -0.9271,0.0085 -1.0795,0.0085 -0.24976,0 -0.4826,-0.0127 -0.69426,-0.05503 z"
         style="font-weight:normal;font-family:'Noto Sans CJK SC';-inkscape-font-specification:'Noto Sans CJK SC';text-align:center;text-anchor:middle"
         id="path1187" />
      <path
         d="m 179.37257,63.331533 c -0.0847,-0.275167 -0.27093,-0.6858 -0.4318,-1.007533 l -0.27093,0.1016 c 0.15663,0.321733 0.3429,0.7493 0.41486,1.024466 z m 0.889,-0.681566 c -0.25823,0.804332 -0.63923,1.519765 -1.21073,2.095498 -0.5334,-0.5334 -0.9398,-1.193799 -1.21497,-1.917699 l -0.28786,0.0889 c 0.30056,0.7874 0.7239,1.485899 1.27,2.053165 -0.46144,0.4064 -1.0287,0.728133 -1.73144,0.960966 0.0593,0.07197 0.13547,0.1905 0.17357,0.270933 0.7239,-0.253999 1.30387,-0.592666 1.778,-1.011765 0.4826,0.448732 1.0541,0.791632 1.72296,1.011765 0.0466,-0.0889 0.1397,-0.2159 0.2159,-0.283633 -0.65193,-0.198966 -1.2192,-0.529166 -1.7018,-0.956732 0.60114,-0.6096 1.00754,-1.354666 1.3081,-2.209798 z"
         style="font-weight:normal;font-family:'Noto Sans CJK SC';-inkscape-font-specification:'Noto Sans CJK SC';text-align:center;text-anchor:middle"
         id="path1189" />
      <path
         d="m 182.30204,62.9336 v 0.935566 h -0.52917 V 62.9336 Z m -0.52917,2.188631 v -0.973666 h 0.52917 v 0.973666 z m 0.81703,0.287867 v -2.764365 h -1.1049 v 3.103031 h 0.28787 v -0.338666 z m 0.70273,-1.0033 v -1.104899 h 0.51647 v 0.656167 c 0,0.156633 -0.004,0.304799 -0.0212,0.448732 z m 1.39277,-1.104899 v 1.104899 h -0.5969 c 0.0127,-0.143933 0.0169,-0.292099 0.0169,-0.444499 v -0.6604 z m 0.54187,1.392766 v -0.287867 h -0.24554 v -1.392765 h -0.8763 v -0.656166 h -0.29633 v 0.656166 h -0.80433 v 1.392765 h -0.28363 v 0.287867 h 1.02023 c -0.1143,0.507999 -0.42334,0.948266 -1.2065,1.269999 0.0677,0.05503 0.16087,0.1651 0.19473,0.232833 0.762,-0.3175 1.1049,-0.757766 1.2573,-1.253066 0.20743,0.5842 0.5461,1.0287 1.04987,1.274233 0.0423,-0.08043 0.13546,-0.194734 0.2032,-0.254 -0.5207,-0.220133 -0.8636,-0.681566 -1.0414,-1.269999 z"
         style="font-weight:normal;font-family:'Noto Sans CJK SC';-inkscape-font-specification:'Noto Sans CJK SC';text-align:center;text-anchor:middle"
         id="path1191" />
      <path
         d="m 186.50573,62.353634 c -0.22436,0.639232 -0.58843,1.269998 -0.9779,1.680631 0.0508,0.07197 0.14394,0.232834 0.1778,0.309034 0.12277,-0.135467 0.24977,-0.296334 0.36407,-0.465667 v 2.315632 h 0.30057 v -2.802465 c 0.1651,-0.296333 0.31326,-0.622299 0.4318,-0.944032 z m 0.68157,1.117599 h 0.74506 c -0.0212,0.118533 -0.0635,0.270933 -0.1651,0.423333 h -0.57996 z m 1.016,-0.5842 c -0.0762,0.118533 -0.1651,0.249767 -0.254,0.3429 h -0.7874 c 0.10583,-0.110067 0.19473,-0.2286 0.2794,-0.3429 z m 0.67733,1.007533 h -0.80857 c 0.0762,-0.1524 0.11007,-0.300567 0.11854,-0.423333 h 0.69003 z m 0.127,0.423333 c -0.19897,0.139699 -0.508,0.325966 -0.77047,0.461433 -0.0931,-0.198967 -0.2286,-0.385233 -0.41486,-0.537633 0.0339,-0.03387 0.0677,-0.06773 0.0974,-0.105834 h 1.25307 v -0.905932 h -0.89747 c 0.12277,-0.143933 0.24554,-0.313267 0.33867,-0.4699 l -0.18627,-0.135466 -0.055,0.01693 h -0.76623 c 0.0466,-0.08467 0.0974,-0.1651 0.1397,-0.245533 l -0.29634,-0.05503 c -0.1778,0.355599 -0.50799,0.804332 -0.97366,1.130299 0.0677,0.04233 0.16087,0.131233 0.2032,0.198966 0.0804,-0.05927 0.1524,-0.118533 0.22437,-0.186266 v 0.651932 h 0.65193 c -0.19897,0.1778 -0.50377,0.351367 -0.94827,0.4953 0.0635,0.0508 0.1397,0.1397 0.1778,0.194733 0.37677,-0.122766 0.65617,-0.270933 0.8636,-0.423333 0.0635,0.05503 0.127,0.127 0.1778,0.198967 -0.28363,0.249766 -0.80433,0.512233 -1.21496,0.634999 0.0508,0.04657 0.13123,0.1397 0.17356,0.2032 0.3683,-0.135467 0.84243,-0.397933 1.15147,-0.660399 0.0423,0.0762 0.0762,0.156633 0.1016,0.237066 -0.33867,0.338666 -0.9525,0.660399 -1.46897,0.817033 0.0635,0.0508 0.1397,0.152399 0.18204,0.220133 0.45296,-0.156633 0.98213,-0.448733 1.34619,-0.778933 0.0381,0.2667 -0.008,0.4953 -0.0974,0.5842 -0.0635,0.07197 -0.127,0.08043 -0.20744,0.08043 -0.0762,0 -0.16933,-0.0042 -0.2794,-0.01693 0.0466,0.0762 0.072,0.194733 0.0762,0.270933 0.0931,0.0085 0.18627,0.0085 0.25824,0.0085 0.15663,0 0.26246,-0.02963 0.3683,-0.143933 0.18203,-0.173566 0.2413,-0.622299 0.0974,-1.066799 0.0677,-0.02963 0.1397,-0.0635 0.20744,-0.09737 0.14816,0.4572 0.41063,0.859366 0.75353,1.071033 0.0423,-0.0762 0.13123,-0.182033 0.2032,-0.237067 -0.33443,-0.173566 -0.59267,-0.541866 -0.72813,-0.948265 0.1651,-0.08467 0.32596,-0.173567 0.4699,-0.2667 z"
         style="font-weight:normal;font-family:'Noto Sans CJK SC';-inkscape-font-specification:'Noto Sans CJK SC';text-align:center;text-anchor:middle"
         id="path1193" />
    </g>
    <path
       style="fill:none;stroke:#505050;stroke-width:.661458;stroke-linecap:square;stroke-linejoin:miter;stroke-miterlimit:4;stroke-dasharray:none;stroke-opacity:1;marker-end:url(#marker88364814090)"
       d="M42.04 64.82h7.94"
       id="path2233" />
    <path
       style="fill:none;stroke:#505050;stroke-width:.661458;stroke-linecap:square;stroke-linejoin:miter;stroke-miterlimit:4;stroke-dasharray:none;stroke-opacity:1;marker-end:url(#marker88364814090-0)"
       d="M94.82 64.82h7.94"
       id="path2233-0" />
    <path
       style="fill:none;stroke:#505050;stroke-width:.661458;stroke-linecap:square;stroke-linejoin:miter;stroke-miterlimit:4;stroke-dasharray:none;stroke-opacity:1;marker-end:url(#marker88364814090-9)"
       d="M147.83 64.82h7.93"
       id="path2233-5" />
    <path
       style="fill:none;stroke:#505050;stroke-width:.661458;stroke-linecap:square;stroke-linejoin:miter;stroke-miterlimit:4;stroke-dasharray:none;stroke-opacity:1;marker-end:url(#marker88364814090-4)"
       d="M201.14 64.82h7.94"
       id="path2233-59" />
  </g>
</svg>
